<?xml version="1.0" encoding="iso-8859-1"?>
<!-- Uploaded to: SVG Repo, www.svgrepo.com, Generator: SVG Repo Mixer Tools -->
<svg fill="#000000" height="800px" width="800px" version="1.1" id="Layer_1" xmlns="http://www.w3.org/2000/svg" xmlns:xlink="http://www.w3.org/1999/xlink" 
	 viewBox="0 0 512 512" xml:space="preserve">
<g>
	<g>
		<path d="M511.887,343.101c-3.038-18.232-21.24-69.214-55.534-101.948c-5.414-5.168-11.051-11.2-17.018-17.587
			c-28.853-30.88-68.369-73.173-139.102-73.173c-51.033,0-82.548,7.005-105.558,12.12c-14.009,3.114-25.073,5.573-35.988,5.573
			c-3.93,0-8.575-0.422-13.953-0.912c-34.803-3.167-93.046-8.467-143.728,84.868c-2.186,4.025-0.694,9.06,3.331,11.246
			s9.06,0.694,11.246-3.331c45.473-83.74,94.922-79.24,127.648-76.263c5.54,0.504,10.773,0.98,15.457,0.98
			c12.736,0,25.18-2.766,39.588-5.969c23.5-5.224,52.746-11.724,101.958-11.724c63.531,0,98.712,37.654,126.981,67.91
			c6.134,6.565,11.929,12.767,17.684,18.262c13.618,12.999,24.78,29.781,33.16,45.904c-6.408-5.369-13.532-9.898-21.167-12.498
			l-53.729-36.762c-1.523-8.744-7.312-28.174-29.077-36.884c-27.272-10.912-69.348-34.667-69.77-34.904
			c-3.987-2.256-9.047-0.852-11.303,3.134c-2.256,3.987-0.853,9.047,3.134,11.303c1.762,0.996,43.462,24.539,71.776,35.869
			c17.868,7.15,19.157,25.86,19.202,26.601c0.116,2.603,1.451,5.001,3.602,6.472l5.197,3.556
			c-5.257,6.967-14.915,19.794-22.737,30.354c-5.57,7.52-8.299,17.532-9.595,26.631c-4.549-16.871-11.477-37.575-20.952-52.647
			c-11.451-18.216-16.824-33.532-16.874-33.677c-1.493-4.33-6.214-6.631-10.544-5.137c-4.33,1.493-6.631,6.215-5.138,10.544
			c0.167,0.484,3.036,8.703,9.034,20.42c-1.394,1.662-8.559,8.613-32.577,11.569c0.834-0.989,1.673-1.967,2.487-2.989
			c2.853-3.584,2.259-8.801-1.325-11.654c-3.583-2.852-8.801-2.259-11.654,1.325c-17.754,22.306-41.264,35.626-60.155,46.33
			c-2.905,1.646-5.687,3.222-8.308,4.751c-12.998,7.582-18.35,16.726-20.493,23.758c-0.888-1.192-1.211-2.695-0.856-4.151
			c4.85-19.928,16.128-69.652,16.128-100.909c0-18.434,13.542-28.161,14.071-28.534c3.146-2.144,4.428-6.155,3.108-9.726
			c-1.318-3.572-4.896-5.786-8.685-5.371c-75.742,8.313-125.532,96.308-127.615,100.05c-2.226,4.001-0.788,9.047,3.211,11.275
			c3.999,2.228,9.049,0.792,11.281-3.205c0.317-0.568,21.94-38.709,56.598-65.738c-9.105,11.053-18.29,24.877-26.55,42.093
			c-1.981,4.13-0.239,9.084,3.89,11.065c1.157,0.555,2.379,0.818,3.582,0.818c3.091,0,6.057-1.735,7.483-4.709
			c14.348-29.908,31.639-48.238,44.118-58.597c-0.673,3.279-1.08,6.795-1.08,10.576c0,29.461-10.95,77.64-15.659,96.987
			c-1.794,7.375,0.351,14.994,5.737,20.38l12.351,12.351c1.555,1.556,3.665,2.43,5.864,2.43h17.693c4.58,0,8.294-3.713,8.294-8.294
			s-3.713-8.294-8.294-8.294h-9.421c0.039-0.579,0.02-1.171-0.069-1.768c-0.014-0.094-0.742-9.755,13.668-18.16
			c2.564-1.496,5.286-3.038,8.128-4.648c6.096-3.455,12.917-7.324,20.015-11.791l-3.779,18.895
			c-1.352,6.762,0.751,13.709,5.626,18.586l4.198,4.198c0.001,0.001,0.002,0.002,0.003,0.003l8.846,8.845
			c1.555,1.556,3.665,2.43,5.864,2.43h17.693c4.58,0,8.294-3.713,8.294-8.294s-3.713-8.294-8.294-8.294h-14.259l-3.559-3.559
			c2.009-7.901,10.797-19.75,18.035-29.505c6.698-9.027,12.598-16.981,15.506-24.035c15.056-2.933,23.97-7.54,29.201-11.64
			c0.372,0.605,0.75,1.213,1.135,1.826c11.889,18.914,19.57,48.863,23.09,65.034c2.329,10.7,12.003,18.466,23.001,18.466h5.163
			c4.58,0,8.294-3.713,8.294-8.294s-3.713-8.294-8.294-8.294h-0.582c0.025-0.385,0.034-0.773,0.005-1.169
			c-0.537-7.315-0.283-28.525,7.24-38.681c1.481-1.999,3.03-4.082,4.601-6.19l22.688,51.564c2.957,6.721,9.612,11.064,16.955,11.064
			h11.017c4.58,0,8.294-3.713,8.294-8.294s-3.713-8.294-8.294-8.294h-9.424c0.032-0.487,0.029-0.982-0.028-1.483
			c-1.639-14.513-2.314-39.455,1.776-52.473l14.404,9.856c0.683,0.467,1.432,0.829,2.223,1.075
			c24.835,7.715,45.446,45.978,45.648,46.358c1.472,2.775,4.328,4.408,7.327,4.408c0.885,0,1.781-0.141,2.658-0.439
			C510.217,351.017,512.556,347.112,511.887,343.101z M269.439,302.071c-3.368,4.539-6.772,9.127-9.855,13.692l4.182-20.914
			c1.659-1.309,3.311-2.651,4.952-4.045c0.182,0.012,0.363,0.028,0.549,0.028c0.076,0,0.154-0.001,0.231-0.003
			c2.903-0.08,5.67-0.21,8.322-0.381C275.346,294.105,272.371,298.117,269.439,302.071z M319.138,261.61
			c0,0,0.011-0.035,0.031-0.086c0.022,0.042,0.043,0.085,0.065,0.127L319.138,261.61z M414.623,311.208l-12.088-27.472
			c2.783-3.702,5.254-6.979,7.096-9.418l10.416,7.127C416.542,289.497,415.08,300.539,414.623,311.208z"/>
	</g>
</g>
<g>
	<g>
		<path d="M132.866,199.563c-2.88-3.561-8.1-4.114-11.661-1.234c-2.181,1.763-53.655,43.697-76.12,89.397
			c-2.02,4.11-0.326,9.081,3.784,11.102c1.177,0.578,2.424,0.853,3.653,0.853c3.063,0,6.008-1.703,7.45-4.637
			c20.835-42.384,71.158-83.409,71.663-83.818C135.195,208.345,135.746,203.122,132.866,199.563z"/>
	</g>
</g>
<g>
	<g>
		<path d="M91.821,204.924c-2.25-3.989-7.311-5.398-11.299-3.146c-1.196,0.675-29.656,17.176-61.389,72.99
			c-2.264,3.982-0.871,9.046,3.111,11.309c1.294,0.735,2.703,1.085,4.092,1.085c2.885-0.001,5.689-1.508,7.218-4.195
			c29.014-51.034,54.659-66.469,55.159-66.764C92.672,213.941,94.065,208.9,91.821,204.924z"/>
	</g>
</g>
</svg>