<svg xmlns="http://www.w3.org/2000/svg" version="1.1" xmlns:xlink="http://www.w3.org/1999/xlink" xmlns:svgjs="http://svgjs.dev/svgjs" width="1920" height="1080" preserveAspectRatio="none" viewBox="0 0 1920 1080"><g mask="url(&quot;#SvgjsMask1427&quot;)" fill="none"><rect width="1920" height="1080" x="0" y="0" fill="rgba(8, 51, 68, 1)"></rect><path d="M166.73 166.86L277.59 230.86L277.59 358.86L166.73 422.86L55.88 358.86L55.88 230.86zM55.88 358.86L166.73 422.86L166.73 550.86L55.88 614.86L-54.97 550.86L-54.97 422.86zM388.44 934.86L499.3 998.86L499.3 1126.86L388.44 1190.86L277.59 1126.86L277.59 998.86zM721.01 358.86L831.86 422.86L831.86 550.86L721.01 614.86L610.15 550.86L610.15 422.86zM1053.57 166.86L1164.42 230.86L1164.42 358.86L1053.57 422.86L942.72 358.86L942.72 230.86zM942.72 742.86L1053.57 806.86L1053.57 934.86L942.72 998.86L831.86 934.86L831.86 806.86zM1164.42 358.86L1275.28 422.86L1275.28 550.86L1164.42 614.86L1053.57 550.86L1053.57 422.86zM1164.42 742.86L1275.28 806.86L1275.28 934.86L1164.42 998.86L1053.57 934.86L1053.57 806.86zM1275.28 934.86L1386.13 998.86L1386.13 1126.86L1275.28 1190.86L1164.42 1126.86L1164.42 998.86zM1496.99 166.86L1607.84 230.86L1607.84 358.86L1496.99 422.86L1386.13 358.86L1386.13 230.86zM1386.13 742.86L1496.99 806.86L1496.99 934.86L1386.13 998.86L1275.28 934.86L1275.28 806.86zM1607.84 358.86L1718.7 422.86L1718.7 550.86L1607.84 614.86L1496.99 550.86L1496.99 422.86zM1829.55 1126.86L1940.4 1190.86L1940.4 1318.86L1829.55 1382.86L1718.7 1318.86L1718.7 1190.86z" stroke="rgba(0, 0, 0, 0.2)" stroke-width="2"></path><path d="M153.93 166.86 a12.8 12.8 0 1 0 25.6 0 a12.8 12.8 0 1 0 -25.6 0zM264.79 230.86 a12.8 12.8 0 1 0 25.6 0 a12.8 12.8 0 1 0 -25.6 0zM264.79 358.86 a12.8 12.8 0 1 0 25.6 0 a12.8 12.8 0 1 0 -25.6 0zM153.93 422.86 a12.8 12.8 0 1 0 25.6 0 a12.8 12.8 0 1 0 -25.6 0zM43.08 358.86 a12.8 12.8 0 1 0 25.6 0 a12.8 12.8 0 1 0 -25.6 0zM43.08 230.86 a12.8 12.8 0 1 0 25.6 0 a12.8 12.8 0 1 0 -25.6 0zM153.93 550.86 a12.8 12.8 0 1 0 25.6 0 a12.8 12.8 0 1 0 -25.6 0zM43.08 614.86 a12.8 12.8 0 1 0 25.6 0 a12.8 12.8 0 1 0 -25.6 0zM-67.77 550.86 a12.8 12.8 0 1 0 25.6 0 a12.8 12.8 0 1 0 -25.6 0zM-67.77 422.86 a12.8 12.8 0 1 0 25.6 0 a12.8 12.8 0 1 0 -25.6 0zM375.64 934.86 a12.8 12.8 0 1 0 25.6 0 a12.8 12.8 0 1 0 -25.6 0zM486.5 998.86 a12.8 12.8 0 1 0 25.6 0 a12.8 12.8 0 1 0 -25.6 0zM486.5 1126.86 a12.8 12.8 0 1 0 25.6 0 a12.8 12.8 0 1 0 -25.6 0zM375.64 1190.86 a12.8 12.8 0 1 0 25.6 0 a12.8 12.8 0 1 0 -25.6 0zM264.79 1126.86 a12.8 12.8 0 1 0 25.6 0 a12.8 12.8 0 1 0 -25.6 0zM264.79 998.86 a12.8 12.8 0 1 0 25.6 0 a12.8 12.8 0 1 0 -25.6 0zM708.21 358.86 a12.8 12.8 0 1 0 25.6 0 a12.8 12.8 0 1 0 -25.6 0zM819.06 422.86 a12.8 12.8 0 1 0 25.6 0 a12.8 12.8 0 1 0 -25.6 0zM819.06 550.86 a12.8 12.8 0 1 0 25.6 0 a12.8 12.8 0 1 0 -25.6 0zM708.21 614.86 a12.8 12.8 0 1 0 25.6 0 a12.8 12.8 0 1 0 -25.6 0zM597.35 550.86 a12.8 12.8 0 1 0 25.6 0 a12.8 12.8 0 1 0 -25.6 0zM597.35 422.86 a12.8 12.8 0 1 0 25.6 0 a12.8 12.8 0 1 0 -25.6 0zM1040.77 166.86 a12.8 12.8 0 1 0 25.6 0 a12.8 12.8 0 1 0 -25.6 0zM1151.62 230.86 a12.8 12.8 0 1 0 25.6 0 a12.8 12.8 0 1 0 -25.6 0zM1151.62 358.86 a12.8 12.8 0 1 0 25.6 0 a12.8 12.8 0 1 0 -25.6 0zM1040.77 422.86 a12.8 12.8 0 1 0 25.6 0 a12.8 12.8 0 1 0 -25.6 0zM929.92 358.86 a12.8 12.8 0 1 0 25.6 0 a12.8 12.8 0 1 0 -25.6 0zM929.92 230.86 a12.8 12.8 0 1 0 25.6 0 a12.8 12.8 0 1 0 -25.6 0zM929.92 742.86 a12.8 12.8 0 1 0 25.6 0 a12.8 12.8 0 1 0 -25.6 0zM1040.77 806.86 a12.8 12.8 0 1 0 25.6 0 a12.8 12.8 0 1 0 -25.6 0zM1040.77 934.86 a12.8 12.8 0 1 0 25.6 0 a12.8 12.8 0 1 0 -25.6 0zM929.92 998.86 a12.8 12.8 0 1 0 25.6 0 a12.8 12.8 0 1 0 -25.6 0zM819.06 934.86 a12.8 12.8 0 1 0 25.6 0 a12.8 12.8 0 1 0 -25.6 0zM819.06 806.86 a12.8 12.8 0 1 0 25.6 0 a12.8 12.8 0 1 0 -25.6 0zM1262.48 422.86 a12.8 12.8 0 1 0 25.6 0 a12.8 12.8 0 1 0 -25.6 0zM1262.48 550.86 a12.8 12.8 0 1 0 25.6 0 a12.8 12.8 0 1 0 -25.6 0zM1151.62 614.86 a12.8 12.8 0 1 0 25.6 0 a12.8 12.8 0 1 0 -25.6 0zM1040.77 550.86 a12.8 12.8 0 1 0 25.6 0 a12.8 12.8 0 1 0 -25.6 0zM1151.62 742.86 a12.8 12.8 0 1 0 25.6 0 a12.8 12.8 0 1 0 -25.6 0zM1262.48 806.86 a12.8 12.8 0 1 0 25.6 0 a12.8 12.8 0 1 0 -25.6 0zM1262.48 934.86 a12.8 12.8 0 1 0 25.6 0 a12.8 12.8 0 1 0 -25.6 0zM1151.62 998.86 a12.8 12.8 0 1 0 25.6 0 a12.8 12.8 0 1 0 -25.6 0zM1373.33 998.86 a12.8 12.8 0 1 0 25.6 0 a12.8 12.8 0 1 0 -25.6 0zM1373.33 1126.86 a12.8 12.8 0 1 0 25.6 0 a12.8 12.8 0 1 0 -25.6 0zM1262.48 1190.86 a12.8 12.8 0 1 0 25.6 0 a12.8 12.8 0 1 0 -25.6 0zM1151.62 1126.86 a12.8 12.8 0 1 0 25.6 0 a12.8 12.8 0 1 0 -25.6 0zM1484.19 166.86 a12.8 12.8 0 1 0 25.6 0 a12.8 12.8 0 1 0 -25.6 0zM1595.04 230.86 a12.8 12.8 0 1 0 25.6 0 a12.8 12.8 0 1 0 -25.6 0zM1595.04 358.86 a12.8 12.8 0 1 0 25.6 0 a12.8 12.8 0 1 0 -25.6 0zM1484.19 422.86 a12.8 12.8 0 1 0 25.6 0 a12.8 12.8 0 1 0 -25.6 0zM1373.33 358.86 a12.8 12.8 0 1 0 25.6 0 a12.8 12.8 0 1 0 -25.6 0zM1373.33 230.86 a12.8 12.8 0 1 0 25.6 0 a12.8 12.8 0 1 0 -25.6 0zM1373.33 742.86 a12.8 12.8 0 1 0 25.6 0 a12.8 12.8 0 1 0 -25.6 0zM1484.19 806.86 a12.8 12.8 0 1 0 25.6 0 a12.8 12.8 0 1 0 -25.6 0zM1484.19 934.86 a12.8 12.8 0 1 0 25.6 0 a12.8 12.8 0 1 0 -25.6 0zM1705.9 422.86 a12.8 12.8 0 1 0 25.6 0 a12.8 12.8 0 1 0 -25.6 0zM1705.9 550.86 a12.8 12.8 0 1 0 25.6 0 a12.8 12.8 0 1 0 -25.6 0zM1595.04 614.86 a12.8 12.8 0 1 0 25.6 0 a12.8 12.8 0 1 0 -25.6 0zM1484.19 550.86 a12.8 12.8 0 1 0 25.6 0 a12.8 12.8 0 1 0 -25.6 0zM1816.75 1126.86 a12.8 12.8 0 1 0 25.6 0 a12.8 12.8 0 1 0 -25.6 0zM1927.6 1190.86 a12.8 12.8 0 1 0 25.6 0 a12.8 12.8 0 1 0 -25.6 0zM1927.6 1318.86 a12.8 12.8 0 1 0 25.6 0 a12.8 12.8 0 1 0 -25.6 0zM1816.75 1382.86 a12.8 12.8 0 1 0 25.6 0 a12.8 12.8 0 1 0 -25.6 0zM1705.9 1318.86 a12.8 12.8 0 1 0 25.6 0 a12.8 12.8 0 1 0 -25.6 0zM1705.9 1190.86 a12.8 12.8 0 1 0 25.6 0 a12.8 12.8 0 1 0 -25.6 0z" fill="rgba(0, 0, 0, 0.2)"></path><path d="M136.29 892.59L216.84 939.09L216.84 1032.09L136.29 1078.59L55.75 1032.09L55.75 939.09zM297.38 334.59L377.92 381.09L377.92 474.09L297.38 520.59L216.84 474.09L216.84 381.09zM458.46 55.59L539.01 102.09L539.01 195.09L458.46 241.59L377.92 195.09L377.92 102.09zM539.01 -83.91L619.55 -37.41L619.55 55.59L539.01 102.09L458.46 55.59L458.46 -37.41zM539.01 474.09L619.55 520.59L619.55 613.59L539.01 660.09L458.46 613.59L458.46 520.59zM539.01 1032.09L619.55 1078.59L619.55 1171.59L539.01 1218.09L458.46 1171.59L458.46 1078.59zM700.09 474.09L780.63 520.59L780.63 613.59L700.09 660.09L619.55 613.59L619.55 520.59zM1102.8 613.59L1183.35 660.09L1183.35 753.09L1102.8 799.59L1022.26 753.09L1022.26 660.09zM1183.35 195.09L1263.89 241.59L1263.89 334.59L1183.35 381.09L1102.8 334.59L1102.8 241.59zM1424.98 613.59L1505.52 660.09L1505.52 753.09L1424.98 799.59L1344.43 753.09L1344.43 660.09zM1344.43 753.09L1424.98 799.59L1424.98 892.59L1344.43 939.09L1263.89 892.59L1263.89 799.59zM1344.43 1032.09L1424.98 1078.59L1424.98 1171.59L1344.43 1218.09L1263.89 1171.59L1263.89 1078.59zM1505.52 195.09L1586.06 241.59L1586.06 334.59L1505.52 381.09L1424.98 334.59L1424.98 241.59zM1666.6 474.09L1747.15 520.59L1747.15 613.59L1666.6 660.09L1586.06 613.59L1586.06 520.59z" stroke="url(&quot;#SvgjsLinearGradient1428&quot;)" stroke-width="2"></path><path d="M126.99 892.59 a9.3 9.3 0 1 0 18.6 0 a9.3 9.3 0 1 0 -18.6 0zM207.54 939.09 a9.3 9.3 0 1 0 18.6 0 a9.3 9.3 0 1 0 -18.6 0zM207.54 1032.09 a9.3 9.3 0 1 0 18.6 0 a9.3 9.3 0 1 0 -18.6 0zM126.99 1078.59 a9.3 9.3 0 1 0 18.6 0 a9.3 9.3 0 1 0 -18.6 0zM46.45 1032.09 a9.3 9.3 0 1 0 18.6 0 a9.3 9.3 0 1 0 -18.6 0zM46.45 939.09 a9.3 9.3 0 1 0 18.6 0 a9.3 9.3 0 1 0 -18.6 0zM288.08 334.59 a9.3 9.3 0 1 0 18.6 0 a9.3 9.3 0 1 0 -18.6 0zM368.62 381.09 a9.3 9.3 0 1 0 18.6 0 a9.3 9.3 0 1 0 -18.6 0zM368.62 474.09 a9.3 9.3 0 1 0 18.6 0 a9.3 9.3 0 1 0 -18.6 0zM288.08 520.59 a9.3 9.3 0 1 0 18.6 0 a9.3 9.3 0 1 0 -18.6 0zM207.54 474.09 a9.3 9.3 0 1 0 18.6 0 a9.3 9.3 0 1 0 -18.6 0zM207.54 381.09 a9.3 9.3 0 1 0 18.6 0 a9.3 9.3 0 1 0 -18.6 0zM449.16 55.59 a9.3 9.3 0 1 0 18.6 0 a9.3 9.3 0 1 0 -18.6 0zM529.71 102.09 a9.3 9.3 0 1 0 18.6 0 a9.3 9.3 0 1 0 -18.6 0zM529.71 195.09 a9.3 9.3 0 1 0 18.6 0 a9.3 9.3 0 1 0 -18.6 0zM449.16 241.59 a9.3 9.3 0 1 0 18.6 0 a9.3 9.3 0 1 0 -18.6 0zM368.62 195.09 a9.3 9.3 0 1 0 18.6 0 a9.3 9.3 0 1 0 -18.6 0zM368.62 102.09 a9.3 9.3 0 1 0 18.6 0 a9.3 9.3 0 1 0 -18.6 0zM529.71 -83.91 a9.3 9.3 0 1 0 18.6 0 a9.3 9.3 0 1 0 -18.6 0zM610.25 -37.41 a9.3 9.3 0 1 0 18.6 0 a9.3 9.3 0 1 0 -18.6 0zM610.25 55.59 a9.3 9.3 0 1 0 18.6 0 a9.3 9.3 0 1 0 -18.6 0zM449.16 -37.41 a9.3 9.3 0 1 0 18.6 0 a9.3 9.3 0 1 0 -18.6 0zM529.71 474.09 a9.3 9.3 0 1 0 18.6 0 a9.3 9.3 0 1 0 -18.6 0zM610.25 520.59 a9.3 9.3 0 1 0 18.6 0 a9.3 9.3 0 1 0 -18.6 0zM610.25 613.59 a9.3 9.3 0 1 0 18.6 0 a9.3 9.3 0 1 0 -18.6 0zM529.71 660.09 a9.3 9.3 0 1 0 18.6 0 a9.3 9.3 0 1 0 -18.6 0zM449.16 613.59 a9.3 9.3 0 1 0 18.6 0 a9.3 9.3 0 1 0 -18.6 0zM449.16 520.59 a9.3 9.3 0 1 0 18.6 0 a9.3 9.3 0 1 0 -18.6 0zM529.71 1032.09 a9.3 9.3 0 1 0 18.6 0 a9.3 9.3 0 1 0 -18.6 0zM610.25 1078.59 a9.3 9.3 0 1 0 18.6 0 a9.3 9.3 0 1 0 -18.6 0zM610.25 1171.59 a9.3 9.3 0 1 0 18.6 0 a9.3 9.3 0 1 0 -18.6 0zM529.71 1218.09 a9.3 9.3 0 1 0 18.6 0 a9.3 9.3 0 1 0 -18.6 0zM449.16 1171.59 a9.3 9.3 0 1 0 18.6 0 a9.3 9.3 0 1 0 -18.6 0zM449.16 1078.59 a9.3 9.3 0 1 0 18.6 0 a9.3 9.3 0 1 0 -18.6 0zM690.79 474.09 a9.3 9.3 0 1 0 18.6 0 a9.3 9.3 0 1 0 -18.6 0zM771.33 520.59 a9.3 9.3 0 1 0 18.6 0 a9.3 9.3 0 1 0 -18.6 0zM771.33 613.59 a9.3 9.3 0 1 0 18.6 0 a9.3 9.3 0 1 0 -18.6 0zM690.79 660.09 a9.3 9.3 0 1 0 18.6 0 a9.3 9.3 0 1 0 -18.6 0zM1093.5 613.59 a9.3 9.3 0 1 0 18.6 0 a9.3 9.3 0 1 0 -18.6 0zM1174.05 660.09 a9.3 9.3 0 1 0 18.6 0 a9.3 9.3 0 1 0 -18.6 0zM1174.05 753.09 a9.3 9.3 0 1 0 18.6 0 a9.3 9.3 0 1 0 -18.6 0zM1093.5 799.59 a9.3 9.3 0 1 0 18.6 0 a9.3 9.3 0 1 0 -18.6 0zM1012.96 753.09 a9.3 9.3 0 1 0 18.6 0 a9.3 9.3 0 1 0 -18.6 0zM1012.96 660.09 a9.3 9.3 0 1 0 18.6 0 a9.3 9.3 0 1 0 -18.6 0zM1174.05 195.09 a9.3 9.3 0 1 0 18.6 0 a9.3 9.3 0 1 0 -18.6 0zM1254.59 241.59 a9.3 9.3 0 1 0 18.6 0 a9.3 9.3 0 1 0 -18.6 0zM1254.59 334.59 a9.3 9.3 0 1 0 18.6 0 a9.3 9.3 0 1 0 -18.6 0zM1174.05 381.09 a9.3 9.3 0 1 0 18.6 0 a9.3 9.3 0 1 0 -18.6 0zM1093.5 334.59 a9.3 9.3 0 1 0 18.6 0 a9.3 9.3 0 1 0 -18.6 0zM1093.5 241.59 a9.3 9.3 0 1 0 18.6 0 a9.3 9.3 0 1 0 -18.6 0zM1415.68 613.59 a9.3 9.3 0 1 0 18.6 0 a9.3 9.3 0 1 0 -18.6 0zM1496.22 660.09 a9.3 9.3 0 1 0 18.6 0 a9.3 9.3 0 1 0 -18.6 0zM1496.22 753.09 a9.3 9.3 0 1 0 18.6 0 a9.3 9.3 0 1 0 -18.6 0zM1415.68 799.59 a9.3 9.3 0 1 0 18.6 0 a9.3 9.3 0 1 0 -18.6 0zM1335.13 753.09 a9.3 9.3 0 1 0 18.6 0 a9.3 9.3 0 1 0 -18.6 0zM1335.13 660.09 a9.3 9.3 0 1 0 18.6 0 a9.3 9.3 0 1 0 -18.6 0zM1415.68 892.59 a9.3 9.3 0 1 0 18.6 0 a9.3 9.3 0 1 0 -18.6 0zM1335.13 939.09 a9.3 9.3 0 1 0 18.6 0 a9.3 9.3 0 1 0 -18.6 0zM1254.59 892.59 a9.3 9.3 0 1 0 18.6 0 a9.3 9.3 0 1 0 -18.6 0zM1254.59 799.59 a9.3 9.3 0 1 0 18.6 0 a9.3 9.3 0 1 0 -18.6 0zM1335.13 1032.09 a9.3 9.3 0 1 0 18.6 0 a9.3 9.3 0 1 0 -18.6 0zM1415.68 1078.59 a9.3 9.3 0 1 0 18.6 0 a9.3 9.3 0 1 0 -18.6 0zM1415.68 1171.59 a9.3 9.3 0 1 0 18.6 0 a9.3 9.3 0 1 0 -18.6 0zM1335.13 1218.09 a9.3 9.3 0 1 0 18.6 0 a9.3 9.3 0 1 0 -18.6 0zM1254.59 1171.59 a9.3 9.3 0 1 0 18.6 0 a9.3 9.3 0 1 0 -18.6 0zM1254.59 1078.59 a9.3 9.3 0 1 0 18.6 0 a9.3 9.3 0 1 0 -18.6 0zM1496.22 195.09 a9.3 9.3 0 1 0 18.6 0 a9.3 9.3 0 1 0 -18.6 0zM1576.76 241.59 a9.3 9.3 0 1 0 18.6 0 a9.3 9.3 0 1 0 -18.6 0zM1576.76 334.59 a9.3 9.3 0 1 0 18.6 0 a9.3 9.3 0 1 0 -18.6 0zM1496.22 381.09 a9.3 9.3 0 1 0 18.6 0 a9.3 9.3 0 1 0 -18.6 0zM1415.68 334.59 a9.3 9.3 0 1 0 18.6 0 a9.3 9.3 0 1 0 -18.6 0zM1415.68 241.59 a9.3 9.3 0 1 0 18.6 0 a9.3 9.3 0 1 0 -18.6 0zM1657.3 474.09 a9.3 9.3 0 1 0 18.6 0 a9.3 9.3 0 1 0 -18.6 0zM1737.85 520.59 a9.3 9.3 0 1 0 18.6 0 a9.3 9.3 0 1 0 -18.6 0zM1737.85 613.59 a9.3 9.3 0 1 0 18.6 0 a9.3 9.3 0 1 0 -18.6 0zM1657.3 660.09 a9.3 9.3 0 1 0 18.6 0 a9.3 9.3 0 1 0 -18.6 0zM1576.76 613.59 a9.3 9.3 0 1 0 18.6 0 a9.3 9.3 0 1 0 -18.6 0zM1576.76 520.59 a9.3 9.3 0 1 0 18.6 0 a9.3 9.3 0 1 0 -18.6 0z" fill="url(&quot;#SvgjsLinearGradient1428&quot;)"></path></g><defs><mask id="SvgjsMask1427"><rect width="1920" height="1080" fill="#ffffff"></rect></mask><linearGradient x1="210.048" y1="-209.95200000000003" x2="1709.9520000000002" y2="1289.952" gradientUnits="userSpaceOnUse" id="SvgjsLinearGradient1428"><stop stop-color="#0e2a47" offset="0"></stop><stop stop-color="rgba(21, 94, 117, 1)" offset="1"></stop></linearGradient></defs></svg>