<svg xmlns="http://www.w3.org/2000/svg" version="1.1" xmlns:xlink="http://www.w3.org/1999/xlink" xmlns:svgjs="http://svgjs.dev/svgjs" width="1920" height="1080" preserveAspectRatio="none" viewBox="0 0 1920 1080"><g mask="url(&quot;#SvgjsMask1813&quot;)" fill="none"><rect width="1920" height="1080" x="0" y="0" fill="url(&quot;#SvgjsLinearGradient1814&quot;)"></rect><path d="M1060 1068L758 766" stroke-width="6" stroke="url(&quot;#SvgjsLinearGradient1815&quot;)" stroke-linecap="round" class="TopLeft"></path><path d="M90 173L-367 -284" stroke-width="10" stroke="url(&quot;#SvgjsLinearGradient1816&quot;)" stroke-linecap="round" class="BottomRight"></path><path d="M560 417L-227 -370" stroke-width="10" stroke="url(&quot;#SvgjsLinearGradient1816&quot;)" stroke-linecap="round" class="BottomRight"></path><path d="M694 228L1399 933" stroke-width="8" stroke="url(&quot;#SvgjsLinearGradient1816&quot;)" stroke-linecap="round" class="BottomRight"></path><path d="M1505 92L2179 766" stroke-width="8" stroke="url(&quot;#SvgjsLinearGradient1815&quot;)" stroke-linecap="round" class="TopLeft"></path><path d="M455 653L-228 -30" stroke-width="8" stroke="url(&quot;#SvgjsLinearGradient1815&quot;)" stroke-linecap="round" class="TopLeft"></path><path d="M1544 10L1251 -283" stroke-width="6" stroke="url(&quot;#SvgjsLinearGradient1815&quot;)" stroke-linecap="round" class="TopLeft"></path><path d="M546 988L1223 1665" stroke-width="10" stroke="url(&quot;#SvgjsLinearGradient1815&quot;)" stroke-linecap="round" class="TopLeft"></path><path d="M1839 636L1080 -123" stroke-width="10" stroke="url(&quot;#SvgjsLinearGradient1815&quot;)" stroke-linecap="round" class="TopLeft"></path><path d="M1111 933L1548 1370" stroke-width="10" stroke="url(&quot;#SvgjsLinearGradient1816&quot;)" stroke-linecap="round" class="BottomRight"></path><path d="M1119 215L1815 911" stroke-width="10" stroke="url(&quot;#SvgjsLinearGradient1815&quot;)" stroke-linecap="round" class="TopLeft"></path><path d="M920 348L524 -48" stroke-width="6" stroke="url(&quot;#SvgjsLinearGradient1816&quot;)" stroke-linecap="round" class="BottomRight"></path><path d="M1473 376L2020 923" stroke-width="8" stroke="url(&quot;#SvgjsLinearGradient1815&quot;)" stroke-linecap="round" class="TopLeft"></path><path d="M1221 110L1876 765" stroke-width="6" stroke="url(&quot;#SvgjsLinearGradient1816&quot;)" stroke-linecap="round" class="BottomRight"></path><path d="M1898 937L1512 551" stroke-width="10" stroke="url(&quot;#SvgjsLinearGradient1815&quot;)" stroke-linecap="round" class="TopLeft"></path><path d="M845 225L235 -385" stroke-width="10" stroke="url(&quot;#SvgjsLinearGradient1816&quot;)" stroke-linecap="round" class="BottomRight"></path><path d="M577 63L911 397" stroke-width="10" stroke="url(&quot;#SvgjsLinearGradient1816&quot;)" stroke-linecap="round" class="BottomRight"></path><path d="M570 248L241 -81" stroke-width="10" stroke="url(&quot;#SvgjsLinearGradient1816&quot;)" stroke-linecap="round" class="BottomRight"></path><path d="M714 100L1189 575" stroke-width="8" stroke="url(&quot;#SvgjsLinearGradient1816&quot;)" stroke-linecap="round" class="BottomRight"></path><path d="M1707 652L2423 1368" stroke-width="10" stroke="url(&quot;#SvgjsLinearGradient1816&quot;)" stroke-linecap="round" class="BottomRight"></path><path d="M957 519L241 -197" stroke-width="6" stroke="url(&quot;#SvgjsLinearGradient1815&quot;)" stroke-linecap="round" class="TopLeft"></path><path d="M851 575L548 272" stroke-width="8" stroke="url(&quot;#SvgjsLinearGradient1815&quot;)" stroke-linecap="round" class="TopLeft"></path><path d="M219 963L-394 350" stroke-width="8" stroke="url(&quot;#SvgjsLinearGradient1816&quot;)" stroke-linecap="round" class="BottomRight"></path><path d="M315 124L-158 -349" stroke-width="10" stroke="url(&quot;#SvgjsLinearGradient1815&quot;)" stroke-linecap="round" class="TopLeft"></path><path d="M924 784L1362 1222" stroke-width="10" stroke="url(&quot;#SvgjsLinearGradient1815&quot;)" stroke-linecap="round" class="TopLeft"></path><path d="M494 560L1214 1280" stroke-width="6" stroke="url(&quot;#SvgjsLinearGradient1816&quot;)" stroke-linecap="round" class="BottomRight"></path><path d="M477 337L886 746" stroke-width="10" stroke="url(&quot;#SvgjsLinearGradient1816&quot;)" stroke-linecap="round" class="BottomRight"></path><path d="M1460 1074L728 342" stroke-width="10" stroke="url(&quot;#SvgjsLinearGradient1815&quot;)" stroke-linecap="round" class="TopLeft"></path><path d="M222 501L578 857" stroke-width="8" stroke="url(&quot;#SvgjsLinearGradient1816&quot;)" stroke-linecap="round" class="BottomRight"></path><path d="M1806 727L1463 384" stroke-width="10" stroke="url(&quot;#SvgjsLinearGradient1815&quot;)" stroke-linecap="round" class="TopLeft"></path><path d="M602 666L170 234" stroke-width="8" stroke="url(&quot;#SvgjsLinearGradient1815&quot;)" stroke-linecap="round" class="TopLeft"></path><path d="M1769 520L2439 1190" stroke-width="6" stroke="url(&quot;#SvgjsLinearGradient1816&quot;)" stroke-linecap="round" class="BottomRight"></path><path d="M1415 788L1140 513" stroke-width="8" stroke="url(&quot;#SvgjsLinearGradient1816&quot;)" stroke-linecap="round" class="BottomRight"></path><path d="M129 232L-256 -153" stroke-width="8" stroke="url(&quot;#SvgjsLinearGradient1815&quot;)" stroke-linecap="round" class="TopLeft"></path><path d="M298 967L889 1558" stroke-width="6" stroke="url(&quot;#SvgjsLinearGradient1816&quot;)" stroke-linecap="round" class="BottomRight"></path><path d="M1543 744L1995 1196" stroke-width="8" stroke="url(&quot;#SvgjsLinearGradient1815&quot;)" stroke-linecap="round" class="TopLeft"></path><path d="M1068 990L606 528" stroke-width="8" stroke="url(&quot;#SvgjsLinearGradient1816&quot;)" stroke-linecap="round" class="BottomRight"></path><path d="M1484 410L1869 795" stroke-width="10" stroke="url(&quot;#SvgjsLinearGradient1815&quot;)" stroke-linecap="round" class="TopLeft"></path><path d="M722 132L1186 596" stroke-width="6" stroke="url(&quot;#SvgjsLinearGradient1815&quot;)" stroke-linecap="round" class="TopLeft"></path><path d="M386 999L1091 1704" stroke-width="8" stroke="url(&quot;#SvgjsLinearGradient1815&quot;)" stroke-linecap="round" class="TopLeft"></path><path d="M1728 795L1173 240" stroke-width="6" stroke="url(&quot;#SvgjsLinearGradient1815&quot;)" stroke-linecap="round" class="TopLeft"></path><path d="M585 914L919 1248" stroke-width="10" stroke="url(&quot;#SvgjsLinearGradient1816&quot;)" stroke-linecap="round" class="BottomRight"></path><path d="M1164 816L1621 1273" stroke-width="6" stroke="url(&quot;#SvgjsLinearGradient1815&quot;)" stroke-linecap="round" class="TopLeft"></path><path d="M1622 634L1084 96" stroke-width="10" stroke="url(&quot;#SvgjsLinearGradient1815&quot;)" stroke-linecap="round" class="TopLeft"></path><path d="M1539 644L2181 1286" stroke-width="6" stroke="url(&quot;#SvgjsLinearGradient1815&quot;)" stroke-linecap="round" class="TopLeft"></path><path d="M56 941L747 1632" stroke-width="6" stroke="url(&quot;#SvgjsLinearGradient1815&quot;)" stroke-linecap="round" class="TopLeft"></path><path d="M766 442L89 -235" stroke-width="10" stroke="url(&quot;#SvgjsLinearGradient1816&quot;)" stroke-linecap="round" class="BottomRight"></path><path d="M33 488L-420 35" stroke-width="10" stroke="url(&quot;#SvgjsLinearGradient1816&quot;)" stroke-linecap="round" class="BottomRight"></path><path d="M871 772L579 480" stroke-width="10" stroke="url(&quot;#SvgjsLinearGradient1815&quot;)" stroke-linecap="round" class="TopLeft"></path><path d="M718 171L16 -531" stroke-width="8" stroke="url(&quot;#SvgjsLinearGradient1815&quot;)" stroke-linecap="round" class="TopLeft"></path><path d="M1202 1048L818 664" stroke-width="8" stroke="url(&quot;#SvgjsLinearGradient1815&quot;)" stroke-linecap="round" class="TopLeft"></path><path d="M310 23L599 312" stroke-width="6" stroke="url(&quot;#SvgjsLinearGradient1816&quot;)" stroke-linecap="round" class="BottomRight"></path><path d="M1694 84L1400 -210" stroke-width="8" stroke="url(&quot;#SvgjsLinearGradient1815&quot;)" stroke-linecap="round" class="TopLeft"></path><path d="M1719 780L2076 1137" stroke-width="8" stroke="url(&quot;#SvgjsLinearGradient1815&quot;)" stroke-linecap="round" class="TopLeft"></path><path d="M1358 1008L922 572" stroke-width="10" stroke="url(&quot;#SvgjsLinearGradient1815&quot;)" stroke-linecap="round" class="TopLeft"></path><path d="M846 552L1482 1188" stroke-width="8" stroke="url(&quot;#SvgjsLinearGradient1815&quot;)" stroke-linecap="round" class="TopLeft"></path></g><defs><mask id="SvgjsMask1813"><rect width="1920" height="1080" fill="#ffffff"></rect></mask><linearGradient x1="10.94%" y1="-19.44%" x2="89.06%" y2="119.44%" gradientUnits="userSpaceOnUse" id="SvgjsLinearGradient1814"><stop stop-color="rgba(14, 42, 71, 1)" offset="0"></stop><stop stop-color="rgba(6, 180, 210, 1)" offset="1"></stop></linearGradient><linearGradient x1="100%" y1="100%" x2="0%" y2="0%" id="SvgjsLinearGradient1815"><stop stop-color="rgba(13, 70, 88, 0)" offset="0"></stop><stop stop-color="rgba(13, 70, 88, 1)" offset="1"></stop></linearGradient><linearGradient x1="0%" y1="0%" x2="100%" y2="100%" id="SvgjsLinearGradient1816"><stop stop-color="rgba(13, 70, 88, 0)" offset="0"></stop><stop stop-color="rgba(13, 70, 88, 1)" offset="1"></stop></linearGradient></defs></svg>